<svg version="1.1" id="Layer_1" xmlns="http://www.w3.org/2000/svg" xmlns:xlink="http://www.w3.org/1999/xlink" x="0px" y="0px" viewBox="0 0 36.6 42.2" style="enable-background:new 0 0 36.6 42.2;" xml:space="preserve">
<style type="text/css">
	.st0{opacity:0.5;fill:#EE2724;stroke:#000000;stroke-width:0.25;stroke-miterlimit:10;enable-background:new    ;}
	.st1{fill:#EE2724;stroke:#000000;stroke-width:0.25;stroke-miterlimit:10;}
</style>
<g>
	<g>
		<path class="st0" d="M18.2,42.2c-1.4,0-2.6-0.7-3.3-1.8L4.3,22.9c-1.8-2.9-2.5-6.1-2.1-9.4c0.4-3.1,1.7-6,3.9-8.3    c1.5-1.6,3.2-2.9,5.2-3.8C13.5,0.5,15.8,0,18.2,0c2.5,0,4.8,0.5,7,1.5c2.1,1,3.8,2.3,5.3,4c2,2.4,3.3,5.2,3.6,8.2    c0.4,3.2-0.4,6.4-2.1,9.2L21.5,40.4C20.8,41.5,19.6,42.2,18.2,42.2z"/>
		<path class="st1" d="M16.7,39.5c0.7,1.1,2.4,1.1,3.1,0L30.4,22c3.2-5.2,2.2-11.2-1.3-15.2C26.6,3.9,22.8,2,18.3,2l0,0    c-4.3,0-8,1.8-10.6,4.5C4,10.6,2.9,16.7,6.1,22L16.7,39.5z"/>
		<g>
			<path class="st1" d="M18.2,40.7c-0.8,0-1.5-0.4-1.9-1L5.7,22.1c-1.6-2.6-2.2-5.5-1.8-8.4c0.3-2.8,1.6-5.4,3.5-7.5     c2.8-3,6.6-4.7,10.8-4.7c2.2,0,4.4,0.5,6.3,1.4C26.4,3.8,28,5,29.3,6.5c3.9,4.5,4.4,10.6,1.4,15.6L20.1,39.6     C19.7,40.3,19,40.7,18.2,40.7z M18.2,2.2c-4,0-7.7,1.6-10.3,4.4C4,10.9,3.4,16.9,6.4,21.8L17,39.3c0.3,0.4,0.7,0.7,1.2,0.7     s1-0.3,1.2-0.7L30,21.8c3-4.8,2.4-10.6-1.2-14.9C26.1,3.9,22.4,2.2,18.2,2.2z"/>
			<path class="st1" d="M18.2,40.4c-0.7,0-1.3-0.3-1.6-0.9L6,22c-1.5-2.5-2.2-5.4-1.8-8.3C4.5,11,5.7,8.5,7.6,6.4     c2.7-2.9,6.5-4.6,10.6-4.6c2.2,0,4.3,0.4,6.2,1.3c1.8,0.8,3.4,2,4.7,3.5c3.8,4.4,4.3,10.4,1.4,15.3L19.8,39.5     C19.5,40,18.9,40.4,18.2,40.4z M18.2,1.9c-4.1,0-7.8,1.6-10.5,4.5c-4,4.4-4.7,10.5-1.6,15.5l10.6,17.5c0.3,0.5,0.9,0.8,1.5,0.8     s1.2-0.3,1.5-0.8l10.6-17.5c3-4.9,2.4-10.8-1.3-15.2C26.3,3.6,22.5,1.9,18.2,1.9z"/>
		</g>
		<ellipse class="st1" cx="18.2" cy="15.3" rx="3.5" ry="3.4"/>
	</g>
</g>
<g id="iX98E2.tif">
	
		
</g>
</svg>